<svg xmlns="http://www.w3.org/2000/svg" xmlns:xlink="http://www.w3.org/1999/xlink" width="770.555" height="900" viewBox="0 0 770.555 900">
  <defs>
    <linearGradient id="linear-gradient" x1="0.5" x2="0.5" y2="1" gradientUnits="objectBoundingBox">
      <stop offset="0" stop-color="#004d84"/>
      <stop offset="1" stop-color="#04385c"/>
    </linearGradient>
  </defs>
  <g id="Group_2" data-name="Group 2" transform="translate(-669.281)">
    <path id="Path_1" data-name="Path 1" d="M719.829-.138s112.722,212.482-21.822,402.9-48.812,497.1-48.812,497.1l595.941-.467L1245.547,0Z" transform="translate(194.289 0.138)" fill="url(#linear-gradient)"/>
    <g id="Reading_list-rafiki_1_" data-name="Reading list-rafiki (1)" transform="translate(669.281 179.283)">
      <g id="freepik--background-complete--inject-2" transform="translate(0 0)">
        <rect id="Rectangle_1" data-name="Rectangle 1" width="726.115" height="0.363" transform="translate(0 475.46)" fill="#ebebeb"/>
        <rect id="Rectangle_2" data-name="Rectangle 2" width="21.638" height="0.363" transform="translate(631.72 498.827)" fill="#ebebeb"/>
        <rect id="Rectangle_3" data-name="Rectangle 3" width="12.62" height="0.363" transform="translate(468.388 502.777)" fill="#ebebeb"/>
        <rect id="Rectangle_4" data-name="Rectangle 4" width="49.652" height="0.363" transform="translate(575.94 485.35)" fill="#ebebeb"/>
        <rect id="Rectangle_5" data-name="Rectangle 5" width="62.722" height="0.363" transform="translate(96.486 492.843)" fill="#ebebeb"/>
        <rect id="Rectangle_6" data-name="Rectangle 6" width="22.626" height="0.363" transform="translate(172.133 492.843)" fill="#ebebeb"/>
        <rect id="Rectangle_7" data-name="Rectangle 7" width="136.045" height="0.363" transform="translate(233.925 487.964)" fill="#ebebeb"/>
        <path id="Path_2" data-name="Path 2" d="M326.9,465.691H46.488A8.292,8.292,0,0,1,38.21,457.4V63.22A8.292,8.292,0,0,1,46.488,55H326.9a8.292,8.292,0,0,1,8.292,8.292V457.4A8.292,8.292,0,0,1,326.9,465.691ZM46.488,55.29a7.929,7.929,0,0,0-7.915,7.929V457.4a7.929,7.929,0,0,0,7.915,7.929H326.9a7.944,7.944,0,0,0,7.929-7.929V63.22A7.944,7.944,0,0,0,326.9,55.29Z" transform="translate(17.28 -55)" fill="#ebebeb"/>
        <path id="Path_3" data-name="Path 3" d="M543.218,465.691H262.792A8.307,8.307,0,0,1,254.5,457.4V63.22A8.307,8.307,0,0,1,262.792,55H543.218a8.292,8.292,0,0,1,8.263,8.22V457.4A8.292,8.292,0,0,1,543.218,465.691ZM262.792,55.29a7.944,7.944,0,0,0-7.929,7.929V457.4a7.944,7.944,0,0,0,7.929,7.929H543.218a7.944,7.944,0,0,0,7.929-7.929V63.22a7.944,7.944,0,0,0-7.929-7.929Z" transform="translate(115.093 -55)" fill="#ebebeb"/>
        <rect id="Rectangle_8" data-name="Rectangle 8" width="27.041" height="185.697" transform="translate(338.515 475.46) rotate(180)" fill="#e6e6e6"/>
        <path id="Path_4" data-name="Path 4" d="M224,393.389H214.47V358.1h19.5Z" transform="translate(96.99 82.071)" fill="#f0f0f0"/>
        <rect id="Rectangle_9" data-name="Rectangle 9" width="27.041" height="185.697" transform="translate(624.488 475.46) rotate(180)" fill="#e6e6e6"/>
        <rect id="Rectangle_10" data-name="Rectangle 10" width="294.28" height="176.068" transform="translate(605.754 465.817) rotate(180)" fill="#f0f0f0"/>
        <path id="Path_5" data-name="Path 5" d="M413.667,393.389h9.527V358.1h-19.5Z" transform="translate(182.561 82.071)" fill="#f0f0f0"/>
        <rect id="Rectangle_11" data-name="Rectangle 11" width="145.644" height="87.235" transform="translate(508.731 449.988) rotate(-90)" fill="#e6e6e6"/>
        <path id="Path_6" data-name="Path 6" d="M380.568,270.392h17.267A29.291,29.291,0,0,0,417.658,263h-56.9A29.248,29.248,0,0,0,380.568,270.392Z" transform="translate(163.147 39.064)" fill="#f0f0f0"/>
        <rect id="Rectangle_12" data-name="Rectangle 12" width="145.644" height="87.235" transform="translate(414.989 449.988) rotate(-90)" fill="#e6e6e6"/>
        <path id="Path_7" data-name="Path 7" d="M315.423,270.392h17.253A29.291,29.291,0,0,0,352.5,263H295.6A29.291,29.291,0,0,0,315.423,270.392Z" transform="translate(133.679 39.064)" fill="#f0f0f0"/>
        <rect id="Rectangle_13" data-name="Rectangle 13" width="145.644" height="87.235" transform="translate(321.262 449.988) rotate(-90)" fill="#e6e6e6"/>
        <path id="Path_8" data-name="Path 8" d="M250.873,270.392h17.253A29.263,29.263,0,0,0,287.948,263h-56.9a29.291,29.291,0,0,0,19.823,7.392Z" transform="translate(104.488 39.064)" fill="#f0f0f0"/>
        <rect id="Rectangle_14" data-name="Rectangle 14" width="184.52" height="414.786" transform="translate(286.147 475.46) rotate(180)" fill="#f0f0f0"/>
        <rect id="Rectangle_15" data-name="Rectangle 15" width="180.628" height="414.786" transform="translate(282.255 475.46) rotate(180)" fill="#f5f5f5"/>
        <rect id="Rectangle_16" data-name="Rectangle 16" width="395.965" height="158.613" transform="translate(271.248 70.085) rotate(90)" fill="#f0f0f0"/>
        <path id="Path_9" data-name="Path 9" d="M215.738,167.467h0A43.247,43.247,0,0,0,172.49,124.22H131.537A43.247,43.247,0,0,0,88.29,167.467Z" transform="translate(39.927 -23.697)" fill="#fafafa"/>
        <rect id="Rectangle_17" data-name="Rectangle 17" width="94.598" height="127.433" transform="translate(255.665 346.836) rotate(90)" fill="#f5f5f5"/>
        <rect id="Rectangle_18" data-name="Rectangle 18" width="56.216" height="164.233" transform="translate(199.449 170.39)" fill="#f5f5f5"/>
        <rect id="Rectangle_19" data-name="Rectangle 19" width="56.216" height="164.233" transform="translate(128.217 170.39)" fill="#f5f5f5"/>
        <path id="Path_10" data-name="Path 10" d="M110.619,230.595H87.6a3.573,3.573,0,0,1-3.6-3.572h0a3.572,3.572,0,0,1,3.573-3.573H110.59a3.587,3.587,0,0,1,3.573,3.573h0a3.572,3.572,0,0,1-3.544,3.572Z" transform="translate(37.987 21.178)" fill="#e0e0e0"/>
        <rect id="Rectangle_20" data-name="Rectangle 20" width="395.965" height="2.861" transform="translate(115.481 70.085) rotate(90)" fill="#f0f0f0"/>
        <rect id="Rectangle_21" data-name="Rectangle 21" width="195.674" height="183.562" transform="translate(598.537 244.236) rotate(180)" fill="#e6e6e6"/>
        <rect id="Rectangle_22" data-name="Rectangle 22" width="195.674" height="183.562" transform="translate(593.614 244.236) rotate(180)" fill="#f5f5f5"/>
        <rect id="Rectangle_23" data-name="Rectangle 23" width="212.04" height="10.63" transform="translate(598.537 254.866) rotate(180)" fill="#e6e6e6"/>
        <rect id="Rectangle_24" data-name="Rectangle 24" width="201.119" height="10.63" transform="translate(582.068 254.866) rotate(180)" fill="#f5f5f5"/>
        <rect id="Rectangle_25" data-name="Rectangle 25" width="164.465" height="177.971" transform="translate(584.755 70.215) rotate(90)" fill="#fff"/>
        <rect id="Rectangle_26" data-name="Rectangle 26" width="164.465" height="9.861" transform="translate(500.7 70.215) rotate(90)" fill="#f5f5f5"/>
        <rect id="Rectangle_27" data-name="Rectangle 27" width="164.465" height="3.732" transform="translate(410.516 70.23) rotate(90)" fill="#e6e6e6"/>
        <rect id="Rectangle_28" data-name="Rectangle 28" width="164.465" height="3.732" transform="translate(504.432 70.215) rotate(90)" fill="#e6e6e6"/>
        <path id="Path_11" data-name="Path 11" d="M297.025,263.978c-3.6-37.293-6.1-97.793-4.153-118.037a2.44,2.44,0,0,1,1-1.743h0a2.5,2.5,0,0,1,3.965,2.077c-.349,10.035-.741,35.1,1.452,78.333,1.06,21.522,2.6,36.306,1.539,39.37Z" transform="translate(132.138 -14.877)" fill="#e6e6e6"/>
        <path id="Path_12" data-name="Path 12" d="M303.037,173.4c-10.166-11.385-31.165-19.474-52.5-19.431-8.365,0,25.472,13.23,39.544,27.825,10.935,11.327,23.236,30.4,27.462,40.982C314.829,200.485,313.289,184.772,303.037,173.4Z" transform="translate(112.708 -10.243)" fill="#e6e6e6"/>
        <path id="Path_13" data-name="Path 13" d="M302.582,176.594c8.51-11.85,28.159-20.97,49.376-22,8.35-.407-23.4,14.522-35.246,29.713-9.207,11.836-18.647,31.455-21.232,42.2C294.929,204.186,294.072,188.444,302.582,176.594Z" transform="translate(133.479 -9.965)" fill="#e6e6e6"/>
        <path id="Path_14" data-name="Path 14" d="M300.19,143.864c-8.713-9.643-26.4-16.5-44.453-16.454-7.1,0,21.566,11.211,33.488,23.555,9.251,9.6,19.692,25.748,23.236,34.708C310.123,166.824,308.816,153.492,300.19,143.864Z" transform="translate(115.148 -22.254)" fill="#e6e6e6"/>
        <path id="Path_15" data-name="Path 15" d="M299.771,154.354c7.261-10.035,23.846-17.761,41.839-18.632,7.058-.334-19.823,12.257-29.843,25.167-7.8,10.02-15.786,26.634-17.993,35.739C293.251,177.721,292.568,164.389,299.771,154.354Z" transform="translate(132.718 -18.498)" fill="#e6e6e6"/>
        <path id="Path_16" data-name="Path 16" d="M303.665,270.842h0a21.2,21.2,0,0,1-21.086-19.968L280.72,218.46h46.036l-1.873,32.414A21.188,21.188,0,0,1,303.665,270.842Z" transform="translate(126.95 18.922)" fill="#e6e6e6"/>
        <path id="Path_17" data-name="Path 17" d="M331.076,227.731h-52L277.59,214.24h54.967Z" transform="translate(125.535 17.013)" fill="#e6e6e6"/>
      </g>
      <g id="freepik--Shadow--inject-2" transform="translate(81.485 508.164)">
        <ellipse id="freepik--path--inject-2" cx="281.573" cy="16.439" rx="281.573" ry="16.439" fill="#f5f5f5"/>
      </g>
      <g id="freepik--Character--inject-2" transform="translate(208.15 51.63)">
        <path id="Path_18" data-name="Path 18" d="M259.079,413.985l-12.126,1.365-4.473-27.505,12.126-1.365Z" transform="translate(-98.494 43.275)" fill="#ffc3bd"/>
        <path id="Path_19" data-name="Path 19" d="M296,415.973H283.886L280.88,387.93h12.112Z" transform="translate(-81.128 43.931)" fill="#ffc3bd"/>
        <path id="Path_20" data-name="Path 20" d="M289.258,406.27h14.755a1.06,1.06,0,0,1,1.031.828l2.4,10.761a1.772,1.772,0,0,1-1.772,2.149c-4.749-.073-8.22-.348-14.2-.348-3.674,0-14.769.378-19.852.378s-5.809-5.025-3.66-5.475c9.323-2.048,16.352-4.865,19.344-7.552A2.9,2.9,0,0,1,289.258,406.27Z" transform="translate(-87.488 52.224)" fill="#263238"/>
        <path id="Path_21" data-name="Path 21" d="M252.506,405.385l13.07-1.452a1.046,1.046,0,0,1,1.118.712l3.587,10.413a1.757,1.757,0,0,1-1.452,2.338c-4.749.465-11.618.959-17.587,1.641-6.971.784-8.132,2.658-16.338,2.454-4.981-.116-6.245-5.17-4.153-5.577,9.527-1.844,11.356-3.282,18.879-9.222a5.548,5.548,0,0,1,2.875-1.307Z" transform="translate(-104.235 51.164)" fill="#263238"/>
        <path id="Path_22" data-name="Path 22" d="M288.6,166.682c-4.066,3.355-8.074,6.274-12.213,9.265s-8.365,5.809-12.722,8.466-8.815,5.257-13.506,7.6a97.739,97.739,0,0,1-14.9,6.259c-1.351.421-2.672.784-4.2,1.147a40.47,40.47,0,0,1-4.516.726c-2.73.3-5.286.421-7.842.552-5.1.232-10.166.218-15.1.189-9.991-.116-19.9-.6-29.858-1.452l-.145-9.091c9.773-1.249,19.591-2.338,29.306-3.427,4.85-.537,9.7-1.118,14.421-1.743,2.367-.32,4.705-.7,6.855-1.1a27.838,27.838,0,0,0,2.759-.639c.842-.29,1.888-.624,2.9-1.017a99.056,99.056,0,0,0,12.068-5.9c4.023-2.309,8.031-4.792,11.981-7.421s7.886-5.359,11.792-8.132,7.784-5.722,11.444-8.51Z" transform="translate(-129.643 -62.561)" fill="#ffc3bd"/>
        <path id="Path_23" data-name="Path 23" d="M274.371,160.565c-1.743,11.444-25.835,28.943-25.835,28.943l-17.3-21.449A287.094,287.094,0,0,1,255.3,145.171C263.073,138.81,276.259,148.1,274.371,160.565Z" transform="translate(-103.577 -66.783)" fill="#407bff"/>
        <path id="Path_24" data-name="Path 24" d="M178.274,180.7l-6.869-4.894-.755,15.466s3.8,0,5.272-2.788Z" transform="translate(-130.977 -51.996)" fill="#ffc3bd"/>
        <path id="Path_25" data-name="Path 25" d="M167.329,172.71l-1.409,15.147,6.869,4.821.755-15.466Z" transform="translate(-133.116 -53.398)" fill="#ffc3bd"/>
        <path id="Path_26" data-name="Path 26" d="M242.49,387.855l2.295,14.174,12.126-1.365-2.295-14.174Z" transform="translate(-98.489 43.279)" opacity="0.2"/>
        <path id="Path_27" data-name="Path 27" d="M292.992,387.93H280.88l1.554,14.464h12.112Z" transform="translate(-81.128 43.931)" opacity="0.2"/>
        <path id="Path_28" data-name="Path 28" d="M311.543,146.159a6.913,6.913,0,0,1,5.2,8.437,284.441,284.441,0,0,0-5.925,33.1c-1.147,9.382-1.83,18.342-2.251,26.46-1.017,19.024-.6,33.532-1.162,38.455l-64.61-4.473c-6.564-51.409,1.118-84.229,5.446-97.546a11.531,11.531,0,0,1,9.44-7.9c2.483-.319,5.446-.639,8.583-.828,1.089,0,2.207-.1,3.326-.131a240.2,240.2,0,0,1,27.491,1.844c1.728.2,3.471.465,5.17.726C305.632,144.9,308.87,145.564,311.543,146.159Z" transform="translate(-99.505 -67.408)" fill="#263238"/>
        <path id="Path_29" data-name="Path 29" d="M287.748,121.61c-2.353,8.713-5.213,24.775.552,31.107-14.973,10.078-24.528,24.252-27.287,21.174-1.452-1.612-2.062-20.331-.174-23.09,10.02-1.67,10.282-8.989,9.047-15.975Z" transform="translate(-90.726 -76.507)" fill="#ffc3bd"/>
        <path id="Path_30" data-name="Path 30" d="M287.172,140.54s-24.412,10.8-27.592,34.941c6.709-7.784,21.566-16.25,21.566-16.25l-6.55-1.873a66.9,66.9,0,0,1,12.867-3.471c-.726-3.34,3.151-9.991,3.151-9.991Z" transform="translate(-90.76 -67.947)" fill="#407bff"/>
        <path id="Path_31" data-name="Path 31" d="M267.4,140.27s3.238,13.8-5.62,35.333c-1.38-8.22-7.174-21.972-7.174-21.972l5.983,1.612s-.3-2.774-5.141-6.477c1.8-3.456,7.435-7.537,7.435-7.537Z" transform="translate(-93.008 -68.069)" fill="#407bff"/>
        <path id="Path_32" data-name="Path 32" d="M277.292,125.32l-10.572,7.813a27.6,27.6,0,0,1,.508,4.938c3.8-.276,9.265-4.052,9.933-7.973A13.187,13.187,0,0,0,277.292,125.32Z" transform="translate(-87.532 -74.83)" opacity="0.2"/>
        <path id="Path_33" data-name="Path 33" d="M259.621,104.231c-5.911.247-9.164,10.427-3.18,18.879S267.565,103.9,259.621,104.231Z" transform="translate(-93.619 -84.368)" fill="#263238"/>
        <path id="Path_34" data-name="Path 34" d="M288.163,115.267c.7,12,1.714,18.981-3.558,25.806-7.944,10.282-23.308,6.608-27.592-4.938-3.834-10.4-4.357-28.275,6.753-34.4a16.4,16.4,0,0,1,24.4,13.535Z" transform="translate(-93.044 -86.444)" fill="#ffc3bd"/>
        <path id="Path_35" data-name="Path 35" d="M291.767,128.583c-9.091-5.809-12.3-13.462-13-17.311-3.529.828-21.043,8.888-26.431,0s1.452-14.116,11.473-8.641c-4.458-7.871-.407-11.72,13.607-12.068s12.126,7.784,12.126,7.784,10.6-4.618,14.363,3.514C308.25,111.214,300.234,127.174,291.767,128.583Z" transform="translate(-94.89 -90.552)" fill="#263238"/>
        <path id="Path_36" data-name="Path 36" d="M275.72,95.919c.131,0,5.3,1.249,11.269-4.749-1.06,5.112-10.325,8.525-10.325,8.525Z" transform="translate(-83.461 -90.273)" fill="#263238"/>
        <path id="Path_37" data-name="Path 37" d="M283.742,106.618c-5.577-1.931-12.344,6.346-9.846,16.338S291.28,109.217,283.742,106.618Z" transform="translate(-84.528 -83.415)" fill="#263238"/>
        <path id="Path_38" data-name="Path 38" d="M286.145,119.246a11.356,11.356,0,0,1-4.647,7.377c-3.282,2.295-6.245-.32-6.433-4.11-.174-3.413,1.336-8.713,5.155-9.5S286.74,115.586,286.145,119.246Z" transform="translate(-83.764 -80.446)" fill="#ffc3bd"/>
        <path id="Path_39" data-name="Path 39" d="M265.74,351.379c2.9-35.405,24.252-133.445,24.252-133.445L247.515,215s-16.381,97.3-17.63,134.244C228.577,387.656,244.029,473,244.029,473l20.331-2.324S262.806,386.944,265.74,351.379Z" transform="translate(-104.225 -34.274)" fill="#407bff"/>
        <path id="Path_40" data-name="Path 40" d="M265.74,351.379c2.9-35.405,24.252-133.445,24.252-133.445L247.515,215s-16.381,97.3-17.63,134.244C228.577,387.656,244.029,473,244.029,473l20.331-2.324S262.806,386.944,265.74,351.379Z" transform="translate(-104.225 -34.274)" fill="#fff" opacity="0.5"/>
        <path id="Path_41" data-name="Path 41" d="M262.537,239.88c-8.568,10.95-8.713,49.376-5.4,77.811,3.151-20.505,8.118-46.471,12.489-68.255Z" transform="translate(-92.773 -23.022)" opacity="0.2"/>
        <path id="Path_42" data-name="Path 42" d="M257.78,216.08s4.589,103.66,9.7,138.761c5.591,38.441,19.808,122.525,19.808,122.525h22.176s-3.645-79.132-6.579-116.9c-3.326-43.015-3.413-141.418-3.413-141.418Z" transform="translate(-91.574 -33.785)" fill="#407bff"/>
        <path id="Path_43" data-name="Path 43" d="M257.78,216.08s4.589,103.66,9.7,138.761c5.591,38.441,19.808,122.525,19.808,122.525h22.176s-3.645-79.132-6.579-116.9c-3.326-43.015-3.413-141.418-3.413-141.418Z" transform="translate(-91.574 -33.785)" fill="#fff" opacity="0.5"/>
        <path id="Path_44" data-name="Path 44" d="M277.229,398.877H303.34v-7.8l-29.19-.508Z" transform="translate(-84.171 45.125)" fill="#407bff"/>
        <path id="Path_45" data-name="Path 45" d="M240.16,397.521l24.281-2.759-.886-7.842-27.186,2.658Z" transform="translate(-101.257 43.474)" fill="#407bff"/>
        <path id="Path_46" data-name="Path 46" d="M266.256,114.684c.116.973-.3,1.83-.944,1.9s-1.234-.654-1.365-1.627.3-1.815.944-1.888S266.14,113.725,266.256,114.684Z" transform="translate(-88.796 -80.371)" fill="#263238"/>
        <path id="Path_47" data-name="Path 47" d="M258.721,115.594c.116.973-.3,1.815-.944,1.9s-1.234-.654-1.351-1.627.3-1.815.929-1.888S258.575,114.621,258.721,115.594Z" transform="translate(-92.195 -79.959)" fill="#263238"/>
        <path id="Path_48" data-name="Path 48" d="M261.555,115.14a35.012,35.012,0,0,1-3.645,8.844,5.649,5.649,0,0,0,4.749.3Z" transform="translate(-91.516 -79.433)" fill="#ed847e"/>
        <path id="Path_49" data-name="Path 49" d="M269.2,112.344a.566.566,0,0,1-.581-.145,4.589,4.589,0,0,0-3.877-1.452.581.581,0,0,1-.741-.523.552.552,0,0,1,.465-.668,5.649,5.649,0,0,1,4.909,1.786.566.566,0,0,1,0,.813.669.669,0,0,1-.174.189Z" transform="translate(-88.766 -81.981)" fill="#263238"/>
        <path id="Path_50" data-name="Path 50" d="M264.79,125.843h0a8.8,8.8,0,0,0,6.274-5.155.3.3,0,0,0-.174-.392.319.319,0,0,0-.407.189,8.321,8.321,0,0,1-5.809,4.749.311.311,0,0,0,.116.61Z" transform="translate(-88.564 -77.11)" fill="#263238"/>
        <path id="Path_51" data-name="Path 51" d="M254.66,114.265a.479.479,0,0,1-.348,0,.581.581,0,0,1-.363-.726,5.722,5.722,0,0,1,3.7-3.7.566.566,0,0,1,.7.421.552.552,0,0,1-.407.683h0a4.56,4.56,0,0,0-2.9,2.9.523.523,0,0,1-.378.421Z" transform="translate(-93.32 -81.841)" fill="#263238"/>
        <path id="Path_52" data-name="Path 52" d="M280.421,408.669a3.644,3.644,0,0,1-2.324-.624,1.714,1.714,0,0,1-.6-1.452.886.886,0,0,1,.494-.813c1.336-.7,5.243,1.714,5.678,1.989a.262.262,0,0,1,.131.291.276.276,0,0,1-.218.232,14.12,14.12,0,0,1-3.166.377Zm-1.8-2.512a.843.843,0,0,0-.363.073.349.349,0,0,0-.189.334,1.176,1.176,0,0,0,.392,1.046c.668.552,2.251.639,4.357.218A11.722,11.722,0,0,0,278.62,406.157Z" transform="translate(-82.658 51.946)" fill="#407bff"/>
        <path id="Path_53" data-name="Path 53" d="M282.764,409.126a.261.261,0,0,1-.145,0c-1.249-.682-3.674-3.34-3.413-4.676a.944.944,0,0,1,.915-.755,1.539,1.539,0,0,1,1.22.363c1.452,1.147,1.7,4.647,1.7,4.792a.231.231,0,0,1-.276.276Zm-2.4-4.909h-.116c-.378,0-.407.218-.421.29-.16.8,1.452,2.8,2.629,3.747a6.8,6.8,0,0,0-1.452-3.79,1,1,0,0,0-.639-.247Z" transform="translate(-81.894 51.053)" fill="#407bff"/>
        <path id="Path_54" data-name="Path 54" d="M247.062,406.769h0c-1.888.61-5.286,1.452-6.738.45a1.568,1.568,0,0,1-.683-1.321.915.915,0,0,1,.378-.813c1.365-.959,6.491.929,7.058,1.147a.3.3,0,0,1,.189.276.276.276,0,0,1-.2.261Zm-6.695-1.249h0a.378.378,0,0,0-.145.334,1.031,1.031,0,0,0,.45.871c.813.581,2.8.465,5.417-.276-2.106-.654-4.879-1.365-5.722-.929Z" transform="translate(-99.779 51.566)" fill="#407bff"/>
        <path id="Path_55" data-name="Path 55" d="M246.261,407.751a.32.32,0,0,1-.232,0c-1.525-.479-4.691-2.759-4.618-4.139,0-.334.189-.755.958-.915a2.062,2.062,0,0,1,1.641.3c1.67,1.089,2.367,4.357,2.4,4.357a.319.319,0,0,1-.087.276Zm-4.081-4.357c-.189.1-.2.218-.2.276,0,.828,2.149,2.643,3.732,3.369a6.709,6.709,0,0,0-2.019-3.529,1.452,1.452,0,0,0-1.191-.232.986.986,0,0,0-.32.1Z" transform="translate(-98.978 50.584)" fill="#407bff"/>
        <path id="Path_56" data-name="Path 56" d="M317.14,157.2c-.3,4.734-.857,9.135-1.452,13.68s-1.351,9-2.207,13.506a159.143,159.143,0,0,1-7.45,26.982l-1.452,3.384-.363.842-.087.218-.145.319-.436.9a14.657,14.657,0,0,1-2,2.9,17.7,17.7,0,0,1-4.357,3.6,25.955,25.955,0,0,1-4.168,2.019,54.5,54.5,0,0,1-14.9,3.122,124.893,124.893,0,0,1-27.709-1.031l.334-9.091,6.4-.726c2.149-.247,4.284-.581,6.4-.871,4.241-.624,8.437-1.322,12.446-2.251a47.417,47.417,0,0,0,10.7-3.544,5.925,5.925,0,0,0,2.338-1.786c0-.218-.421.7.116-.755l.958-2.8a182.981,182.981,0,0,0,5.373-24.485c.7-4.211,1.278-8.467,1.859-12.736s1.031-8.612,1.452-12.692Z" transform="translate(-94.907 -60.996)" fill="#ffc3bd"/>
        <path id="Path_57" data-name="Path 57" d="M306.575,153.348c5.925,9.933.871,41.185.871,41.185l-31.078-5.809s-1.685-17.891,4.241-31.63C287.043,142.194,299.4,141.294,306.575,153.348Z" transform="translate(-83.268 -65.912)" fill="#407bff"/>
        <path id="Path_58" data-name="Path 58" d="M273.966,245.872l-16.483-76.678a15.51,15.51,0,0,0-14.421-11.865H179.92a15.539,15.539,0,0,1,14.421,11.865l16.468,76.678a15.539,15.539,0,0,0,14.421,11.865h63.157A15.524,15.524,0,0,1,273.966,245.872Z" transform="translate(-126.785 -60.354)" fill="#263238"/>
        <path id="Path_59" data-name="Path 59" d="M273.966,245.872l-16.483-76.678a15.51,15.51,0,0,0-14.421-11.865H179.92a15.539,15.539,0,0,1,14.421,11.865l16.468,76.678a15.539,15.539,0,0,0,14.421,11.865h63.157A15.524,15.524,0,0,1,273.966,245.872Z" transform="translate(-126.785 -60.354)" fill="#407bff" opacity="0.7"/>
        <rect id="Rectangle_29" data-name="Rectangle 29" width="18.066" height="1.458" transform="translate(26.881 207.345) rotate(-84.857)" fill="#407bff"/>
        <rect id="Rectangle_30" data-name="Rectangle 30" width="7.566" height="1.452" transform="matrix(0.092, -0.996, 0.996, 0.092, 24.545, 223.575)" fill="#407bff"/>
        <path id="Path_60" data-name="Path 60" d="M189.076,157.33h63.143a13.259,13.259,0,0,0-12.939,11.865L222.9,347.354a13.273,13.273,0,0,1-12.954,11.865H170.531a10.659,10.659,0,0,1-10.79-11.865l16.381-178.16a13.273,13.273,0,0,1,12.954-11.865Z" transform="translate(-135.942 -60.354)" fill="#407bff"/>
        <path id="Path_61" data-name="Path 61" d="M206.545,288.18a10.659,10.659,0,0,0,10.79,11.865H154.177A10.645,10.645,0,0,1,143.4,288.18Z" transform="translate(-143.332 -1.179)" fill="#263238"/>
        <path id="Path_62" data-name="Path 62" d="M206.545,288.18a10.659,10.659,0,0,0,10.79,11.865H154.177A10.645,10.645,0,0,1,143.4,288.18Z" transform="translate(-143.332 -1.179)" fill="#407bff" opacity="0.7"/>
        <g id="Group_1" data-name="Group 1" transform="translate(33.312 111.774)" opacity="0.5">
          <path id="Path_63" data-name="Path 63" d="M221.064,172.69H178.253a2.324,2.324,0,0,1-2.338-2.585h0a2.9,2.9,0,0,1,2.817-2.585h42.739a2.324,2.324,0,0,1,2.338,2.585h0A2.9,2.9,0,0,1,221.064,172.69Z" transform="translate(-161.915 -167.52)" fill="#fff"/>
          <path id="Path_64" data-name="Path 64" d="M220.126,182.31H177.387a2.324,2.324,0,0,1-2.353-2.585h0a2.9,2.9,0,0,1,2.817-2.585h42.739a2.324,2.324,0,0,1,2.353,2.585h0A2.9,2.9,0,0,1,220.126,182.31Z" transform="translate(-162.313 -163.169)" fill="#fff"/>
          <path id="Path_65" data-name="Path 65" d="M208.786,191.94H176.5a2.324,2.324,0,0,1-2.338-2.585h0a2.9,2.9,0,0,1,2.817-2.585h32.254a2.324,2.324,0,0,1,2.353,2.585h0A2.9,2.9,0,0,1,208.786,191.94Z" transform="translate(-162.706 -158.815)" fill="#fff"/>
          <path id="Path_66" data-name="Path 66" d="M186.572,201.605H175.637a2.324,2.324,0,0,1-2.353-2.57h0a2.9,2.9,0,0,1,2.817-2.585h10.95a2.324,2.324,0,0,1,2.338,2.585h0A2.9,2.9,0,0,1,186.572,201.605Z" transform="translate(-163.104 -154.437)" fill="#fff"/>
          <path id="Path_67" data-name="Path 67" d="M217.5,211.19H174.733a2.324,2.324,0,0,1-2.338-2.585h0a2.9,2.9,0,0,1,2.817-2.585h42.725a2.324,2.324,0,0,1,2.353,2.585h0A2.9,2.9,0,0,1,217.5,211.19Z" transform="translate(-163.507 -150.109)" fill="#fff"/>
          <path id="Path_68" data-name="Path 68" d="M199.81,220.82H173.887a2.324,2.324,0,0,1-2.353-2.585h0a2.9,2.9,0,0,1,2.817-2.585H200.26a2.338,2.338,0,0,1,2.353,2.585h0A2.9,2.9,0,0,1,199.81,220.82Z" transform="translate(-163.896 -145.754)" fill="#fff"/>
          <path id="Path_69" data-name="Path 69" d="M215.742,230.44H173a2.324,2.324,0,0,1-2.338-2.585h0a2.9,2.9,0,0,1,2.817-2.585h42.7a2.338,2.338,0,0,1,2.353,2.585h0A2.9,2.9,0,0,1,215.742,230.44Z" transform="translate(-164.289 -141.404)" fill="#fff"/>
          <path id="Path_70" data-name="Path 70" d="M204.391,240.07H172.137a2.323,2.323,0,0,1-2.353-2.585h0A2.9,2.9,0,0,1,172.6,234.9h32.254a2.324,2.324,0,0,1,2.353,2.585h0A2.9,2.9,0,0,1,204.391,240.07Z" transform="translate(-164.687 -137.049)" fill="#fff"/>
          <path id="Path_71" data-name="Path 71" d="M182.206,249.7h-10.95a2.338,2.338,0,0,1-2.353-2.585h0a2.9,2.9,0,0,1,2.832-2.585h10.935a2.324,2.324,0,0,1,2.353,2.585h0A2.9,2.9,0,0,1,182.206,249.7Z" transform="translate(-165.084 -132.694)" fill="#fff"/>
          <path id="Path_72" data-name="Path 72" d="M213.112,259.32H170.387a2.324,2.324,0,0,1-2.353-2.585h0a2.9,2.9,0,0,1,2.817-2.585h42.739a2.324,2.324,0,0,1,2.338,2.585h0a2.9,2.9,0,0,1-2.817,2.585Z" transform="translate(-165.478 -128.343)" fill="#fff"/>
          <path id="Path_73" data-name="Path 73" d="M195.415,268.95H169.507a2.323,2.323,0,0,1-2.353-2.585h0a2.9,2.9,0,0,1,2.817-2.585H195.88a2.324,2.324,0,0,1,2.353,2.585h0A2.9,2.9,0,0,1,195.415,268.95Z" transform="translate(-165.876 -123.988)" fill="#fff"/>
          <path id="Path_74" data-name="Path 74" d="M211.362,278.605H168.637a2.324,2.324,0,0,1-2.353-2.585h0a2.9,2.9,0,0,1,2.817-2.57h42.739a2.323,2.323,0,0,1,2.338,2.57h0a2.9,2.9,0,0,1-2.817,2.585Z" transform="translate(-166.27 -119.615)" fill="#fff"/>
        </g>
        <path id="Path_75" data-name="Path 75" d="M257.476,202.13l-9.28-8.06-4.357,14.842s9.425,5.112,12.678.421Z" transform="translate(-97.879 -43.739)" fill="#ffc3bd"/>
        <path id="Path_76" data-name="Path 76" d="M240.831,193.67l-3.021,12.446,8.771,2.977,4.342-14.842Z" transform="translate(-100.605 -43.92)" fill="#ffc3bd"/>
      </g>
    </g>
  </g>
</svg>
